<svg width="24" height="24" viewBox="0 0 256 262" xmlns="http://www.w3.org/2000/svg">
  <path
    d="M255.68 133.451c0-10.734-.871-18.564-2.76-26.68H130.56v48.448h71.947c-1.45 12.04-9.283 30.172-26.68 42.356l-.244 1.622 38.755 30.023 2.683.268c24.659-22.771 38.659-56.282 38.659-96.037"
    fill="#4285F4"
  />
  <path
    d="M130.56 261.1c35.248 0 64.839-11.605 86.452-31.622l-41.196-31.913c-11.024 7.695-25.82 13.055-45.256 13.055-34.523 0-63.824-22.771-74.269-54.25l-1.531.13-40.298 31.187-.527 1.465C35.393 231.798 79.49 261.1 130.56 261.1"
    fill="#34A853"
  />
  <path
    d="M56.291 156.37c-2.76-8.116-4.351-16.77-4.351-25.695 0-8.924 1.591-17.578 4.206-25.695l-.073-1.73L15.278 71.493l-1.335.635C5.077 89.644 0 109.517 0 130.675s5.077 41.03 13.943 58.548l42.348-32.853"
    fill="#FBBC05"
  />
  <path
    d="M130.56 50.479c24.514 0 41.05 10.589 50.479 19.438l36.844-35.974C195.245 12.91 165.808 0 130.56 0 79.49 0 35.393 29.302 13.943 72.128l42.13 32.853c10.59-31.478 39.891-54.502 74.487-54.502"
    fill="#EA4335"
  />
</svg>
